<mxfile host="app.diagrams.net" modified="2023-05-10T11:54:36.580Z" agent="Mozilla/5.0 (Macintosh; Intel Mac OS X 10_15_7) AppleWebKit/537.36 (KHTML, like Gecko) Chrome/112.0.0.0 Safari/537.36" etag="wJjw24LGSzCgP003OAL6" version="21.2.9" type="device">
  <diagram id="C5RBs43oDa-KdzZeNtuy" name="Page-1">
    <mxGraphModel dx="2069" dy="739" grid="1" gridSize="10" guides="1" tooltips="1" connect="1" arrows="1" fold="1" page="1" pageScale="1" pageWidth="827" pageHeight="1169" math="0" shadow="0">
      <root>
        <mxCell id="WIyWlLk6GJQsqaUBKTNV-0" />
        <mxCell id="WIyWlLk6GJQsqaUBKTNV-1" parent="WIyWlLk6GJQsqaUBKTNV-0" />
        <mxCell id="zkfFHV4jXpPFQw0GAbJ--0" value="Doctor" style="swimlane;fontStyle=2;align=center;verticalAlign=top;childLayout=stackLayout;horizontal=1;startSize=26;horizontalStack=0;resizeParent=1;resizeLast=0;collapsible=1;marginBottom=0;rounded=0;shadow=0;strokeWidth=1;" parent="WIyWlLk6GJQsqaUBKTNV-1" vertex="1">
          <mxGeometry x="-10" y="40" width="280" height="250" as="geometry">
            <mxRectangle x="230" y="140" width="160" height="26" as="alternateBounds" />
          </mxGeometry>
        </mxCell>
        <mxCell id="zkfFHV4jXpPFQw0GAbJ--1" value="doctor_id:Long(primary key)&#xa;firstname:String;&#xa;lastname:String;&#xa;Speciality:String;&#xa;gender:String;&#xa;phone:Long;&#xa;imageUrl:String;&#xa;email:String;&#xa;Cabinet_name:CabinetName;&#xa;List&lt;Invoices&gt; (foreign key referencing token table)&#xa;List&lt;Expenditure&gt; (//)" style="text;align=left;verticalAlign=top;spacingLeft=4;spacingRight=4;overflow=hidden;rotatable=0;points=[[0,0.5],[1,0.5]];portConstraint=eastwest;" parent="zkfFHV4jXpPFQw0GAbJ--0" vertex="1">
          <mxGeometry y="26" width="280" height="214" as="geometry" />
        </mxCell>
        <mxCell id="GJzHazyFfBrI7LoOwoTK-0" value="Expenditure" style="swimlane;fontStyle=0;align=center;verticalAlign=top;childLayout=stackLayout;horizontal=1;startSize=26;horizontalStack=0;resizeParent=1;resizeLast=0;collapsible=1;marginBottom=0;rounded=0;shadow=0;strokeWidth=1;" parent="WIyWlLk6GJQsqaUBKTNV-1" vertex="1">
          <mxGeometry x="350" y="370" width="330" height="290" as="geometry">
            <mxRectangle x="550" y="140" width="160" height="26" as="alternateBounds" />
          </mxGeometry>
        </mxCell>
        <mxCell id="GJzHazyFfBrI7LoOwoTK-1" value="id_expense:Long;&#xa;name_expense:String;&#xa;expenditure_type:expenditure_type,&#xa;dateExpenditure:date&#xa;expenditure_amount: double;&#xa;Author:user_id" style="text;align=left;verticalAlign=top;spacingLeft=4;spacingRight=4;overflow=hidden;rotatable=0;points=[[0,0.5],[1,0.5]];portConstraint=eastwest;" parent="GJzHazyFfBrI7LoOwoTK-0" vertex="1">
          <mxGeometry y="26" width="330" height="194" as="geometry" />
        </mxCell>
        <mxCell id="GJzHazyFfBrI7LoOwoTK-2" value="invoices" style="swimlane;fontStyle=0;align=center;verticalAlign=top;childLayout=stackLayout;horizontal=1;startSize=26;horizontalStack=0;resizeParent=1;resizeLast=0;collapsible=1;marginBottom=0;rounded=0;shadow=0;strokeWidth=1;" parent="WIyWlLk6GJQsqaUBKTNV-1" vertex="1">
          <mxGeometry y="370" width="270" height="280" as="geometry">
            <mxRectangle x="550" y="140" width="160" height="26" as="alternateBounds" />
          </mxGeometry>
        </mxCell>
        <mxCell id="GJzHazyFfBrI7LoOwoTK-6" value="&lt;div style=&quot;border-color: var(--border-color);&quot;&gt;&lt;br&gt;&lt;br&gt;&lt;br&gt;id: Long(primary key)&lt;/div&gt;&lt;div style=&quot;border-color: var(--border-color);&quot;&gt;idFacture:String&amp;nbsp;&lt;/div&gt;&lt;div style=&quot;border-color: var(--border-color);&quot;&gt;type:String&lt;/div&gt;&lt;div style=&quot;border-color: var(--border-color);&quot;&gt;dateFacture:Date&lt;/div&gt;&lt;div style=&quot;border-color: var(--border-color);&quot;&gt;&lt;span style=&quot;background-color: initial;&quot;&gt;datePayment:Date&lt;/span&gt;&lt;/div&gt;&lt;div style=&quot;border-color: var(--border-color);&quot;&gt;&lt;span style=&quot;background-color: initial;&quot;&gt;Mode:String&lt;/span&gt;&lt;br&gt;&lt;/div&gt;&lt;div style=&quot;border-color: var(--border-color);&quot;&gt;&lt;div style=&quot;&quot;&gt;&lt;span style=&quot;background-color: initial;&quot;&gt;soldFactorizaton:double&lt;/span&gt;&lt;/div&gt;&lt;div style=&quot;&quot;&gt;&lt;span style=&quot;background-color: initial;&quot;&gt;soldPayment:solde&amp;nbsp;&lt;br&gt;doctor_id(&lt;/span&gt;manyToOne,Join Column User table)&lt;/div&gt;&lt;div style=&quot;&quot;&gt;&lt;span style=&quot;background-color: initial;&quot;&gt;&lt;br&gt;&lt;/span&gt;&lt;/div&gt;&lt;div style=&quot;&quot;&gt;&lt;span style=&quot;background-color: initial;&quot;&gt;&lt;br&gt;&lt;/span&gt;&lt;/div&gt;&lt;/div&gt;" style="text;html=1;strokeColor=none;fillColor=none;align=left;verticalAlign=middle;whiteSpace=wrap;rounded=0;" parent="GJzHazyFfBrI7LoOwoTK-2" vertex="1">
          <mxGeometry y="26" width="270" height="124" as="geometry" />
        </mxCell>
        <mxCell id="GJzHazyFfBrI7LoOwoTK-11" value="Deposit" style="swimlane;fontStyle=0;align=center;verticalAlign=top;childLayout=stackLayout;horizontal=1;startSize=26;horizontalStack=0;resizeParent=1;resizeLast=0;collapsible=1;marginBottom=0;rounded=0;shadow=0;strokeWidth=1;" parent="WIyWlLk6GJQsqaUBKTNV-1" vertex="1">
          <mxGeometry x="-360" y="360" width="270" height="290" as="geometry">
            <mxRectangle x="550" y="140" width="160" height="26" as="alternateBounds" />
          </mxGeometry>
        </mxCell>
        <mxCell id="GJzHazyFfBrI7LoOwoTK-12" value="&lt;div style=&quot;border-color: var(--border-color);&quot;&gt;&lt;div style=&quot;border-color: var(--border-color);&quot;&gt;&lt;div style=&quot;border-color: var(--border-color);&quot;&gt;&lt;div style=&quot;text-align: left;&quot;&gt;&lt;br&gt;&lt;/div&gt;&lt;div style=&quot;text-align: left;&quot;&gt;&lt;br&gt;&lt;/div&gt;&lt;div style=&quot;text-align: left;&quot;&gt;&lt;br&gt;&lt;/div&gt;&lt;div style=&quot;text-align: left;&quot;&gt;&lt;span style=&quot;background-color: initial;&quot;&gt;id: Long(primary key)&lt;/span&gt;&lt;/div&gt;&lt;/div&gt;&lt;div style=&quot;text-align: left; border-color: var(--border-color);&quot;&gt;idDeposit:String&amp;nbsp;&lt;/div&gt;&lt;div style=&quot;text-align: left; border-color: var(--border-color);&quot;&gt;type:String&lt;/div&gt;&lt;div style=&quot;text-align: left; border-color: var(--border-color);&quot;&gt;dateFacture:Date&lt;/div&gt;&lt;div style=&quot;text-align: left; border-color: var(--border-color);&quot;&gt;datePayment:Date&lt;/div&gt;&lt;div style=&quot;text-align: left; border-color: var(--border-color);&quot;&gt;&lt;span style=&quot;border-color: var(--border-color); background-color: initial;&quot;&gt;Mode:String&lt;/span&gt;&lt;br style=&quot;border-color: var(--border-color);&quot;&gt;&lt;/div&gt;&lt;div style=&quot;border-color: var(--border-color);&quot;&gt;&lt;div style=&quot;text-align: left; border-color: var(--border-color);&quot;&gt;&lt;span style=&quot;border-color: var(--border-color); background-color: initial;&quot;&gt;soldFactorizaton:double&lt;/span&gt;&lt;/div&gt;&lt;div style=&quot;border-color: var(--border-color);&quot;&gt;&lt;div style=&quot;text-align: left;&quot;&gt;&lt;span style=&quot;background-color: initial;&quot;&gt;soldPayment:solde&amp;nbsp;&lt;/span&gt;&lt;/div&gt;&lt;span style=&quot;border-color: var(--border-color); background-color: initial;&quot;&gt;&lt;div style=&quot;text-align: left;&quot;&gt;&lt;span style=&quot;background-color: initial; border-color: var(--border-color);&quot;&gt;doctor_id(&lt;/span&gt;&lt;span style=&quot;background-color: initial;&quot;&gt;manyToOne,Join Column User table)&lt;/span&gt;&lt;/div&gt;&lt;/span&gt;&lt;/div&gt;&lt;div style=&quot;text-align: left; border-color: var(--border-color);&quot;&gt;&lt;span style=&quot;border-color: var(--border-color); background-color: initial;&quot;&gt;&lt;br style=&quot;border-color: var(--border-color);&quot;&gt;&lt;/span&gt;&lt;/div&gt;&lt;/div&gt;&lt;/div&gt;&lt;/div&gt;" style="text;html=1;strokeColor=none;fillColor=none;align=center;verticalAlign=middle;whiteSpace=wrap;rounded=0;" parent="GJzHazyFfBrI7LoOwoTK-11" vertex="1">
          <mxGeometry y="26" width="270" height="140" as="geometry" />
        </mxCell>
        <mxCell id="GJzHazyFfBrI7LoOwoTK-20" value="Ennumeration&lt;Cabinet_name&gt;" style="swimlane;fontStyle=2;align=center;verticalAlign=bottom;childLayout=stackLayout;horizontal=1;startSize=20;horizontalStack=0;resizeParent=1;resizeLast=0;collapsible=1;marginBottom=0;rounded=0;shadow=0;strokeWidth=1;spacing=3;flipV=0;flipH=1;fontSize=12;" parent="WIyWlLk6GJQsqaUBKTNV-1" vertex="1">
          <mxGeometry x="-550" y="748" width="190" height="162" as="geometry">
            <mxRectangle x="230" y="140" width="160" height="26" as="alternateBounds" />
          </mxGeometry>
        </mxCell>
        <mxCell id="GJzHazyFfBrI7LoOwoTK-21" value="Esch-sur-alzette&#xa;Strassen" style="text;align=left;verticalAlign=top;spacingLeft=4;spacingRight=4;overflow=hidden;rotatable=0;points=[[0,0.5],[1,0.5]];portConstraint=eastwest;" parent="GJzHazyFfBrI7LoOwoTK-20" vertex="1">
          <mxGeometry y="20" width="190" height="100" as="geometry" />
        </mxCell>
        <mxCell id="GJzHazyFfBrI7LoOwoTK-22" value="Ennumeration&lt;Role&gt;" style="swimlane;fontStyle=2;align=center;verticalAlign=bottom;childLayout=stackLayout;horizontal=1;startSize=20;horizontalStack=0;resizeParent=1;resizeLast=0;collapsible=1;marginBottom=0;rounded=0;shadow=0;strokeWidth=1;spacing=3;flipV=0;flipH=1;fontSize=12;" parent="WIyWlLk6GJQsqaUBKTNV-1" vertex="1">
          <mxGeometry x="-329" y="751" width="190" height="160" as="geometry">
            <mxRectangle x="230" y="140" width="160" height="26" as="alternateBounds" />
          </mxGeometry>
        </mxCell>
        <mxCell id="GJzHazyFfBrI7LoOwoTK-23" value="Admin (Set Of Permission)&#xa;Account(Set Of Permission),&#xa;Manager(Set Of Permission)&#xa;. " style="text;align=left;verticalAlign=top;spacingLeft=4;spacingRight=4;overflow=hidden;rotatable=0;points=[[0,0.5],[1,0.5]];portConstraint=eastwest;" parent="GJzHazyFfBrI7LoOwoTK-22" vertex="1">
          <mxGeometry y="20" width="190" height="120" as="geometry" />
        </mxCell>
        <mxCell id="GJzHazyFfBrI7LoOwoTK-33" value="*" style="text;html=1;strokeColor=none;fillColor=none;align=center;verticalAlign=middle;whiteSpace=wrap;rounded=0;fontSize=12;" parent="WIyWlLk6GJQsqaUBKTNV-1" vertex="1">
          <mxGeometry x="180" y="30" width="60" height="30" as="geometry" />
        </mxCell>
        <mxCell id="GJzHazyFfBrI7LoOwoTK-41" value="" style="endArrow=classic;html=1;rounded=0;fontSize=12;entryX=0.567;entryY=-0.001;entryDx=0;entryDy=0;entryPerimeter=0;" parent="WIyWlLk6GJQsqaUBKTNV-1" target="GJzHazyFfBrI7LoOwoTK-2" edge="1">
          <mxGeometry width="50" height="50" relative="1" as="geometry">
            <mxPoint x="140" y="290" as="sourcePoint" />
            <mxPoint x="180" y="480" as="targetPoint" />
          </mxGeometry>
        </mxCell>
        <mxCell id="GJzHazyFfBrI7LoOwoTK-45" value="1" style="text;html=1;strokeColor=none;fillColor=none;align=center;verticalAlign=middle;whiteSpace=wrap;rounded=0;fontSize=12;" parent="WIyWlLk6GJQsqaUBKTNV-1" vertex="1">
          <mxGeometry x="74" y="290" width="60" height="30" as="geometry" />
        </mxCell>
        <mxCell id="GJzHazyFfBrI7LoOwoTK-47" value="*" style="text;html=1;strokeColor=none;fillColor=none;align=center;verticalAlign=middle;whiteSpace=wrap;rounded=0;fontSize=12;" parent="WIyWlLk6GJQsqaUBKTNV-1" vertex="1">
          <mxGeometry x="74" y="330" width="60" height="30" as="geometry" />
        </mxCell>
        <mxCell id="GJzHazyFfBrI7LoOwoTK-59" value="" style="endArrow=classic;html=1;rounded=0;fontSize=12;exitX=0;exitY=1;exitDx=0;exitDy=0;" parent="WIyWlLk6GJQsqaUBKTNV-1" edge="1" source="zkfFHV4jXpPFQw0GAbJ--0">
          <mxGeometry width="50" height="50" relative="1" as="geometry">
            <mxPoint x="-10" y="520" as="sourcePoint" />
            <mxPoint x="-120" y="350" as="targetPoint" />
          </mxGeometry>
        </mxCell>
        <mxCell id="GJzHazyFfBrI7LoOwoTK-60" value="1" style="text;html=1;strokeColor=none;fillColor=none;align=center;verticalAlign=middle;whiteSpace=wrap;rounded=0;fontSize=12;" parent="WIyWlLk6GJQsqaUBKTNV-1" vertex="1">
          <mxGeometry x="-70" y="260" width="60" height="30" as="geometry" />
        </mxCell>
        <mxCell id="GJzHazyFfBrI7LoOwoTK-61" value="*" style="text;html=1;strokeColor=none;fillColor=none;align=center;verticalAlign=middle;whiteSpace=wrap;rounded=0;fontSize=12;" parent="WIyWlLk6GJQsqaUBKTNV-1" vertex="1">
          <mxGeometry x="-180" y="485" width="60" height="30" as="geometry" />
        </mxCell>
        <mxCell id="C-1Txqb46iEo5TLTrHJg-0" value="User" style="swimlane;fontStyle=0;align=center;verticalAlign=top;childLayout=stackLayout;horizontal=1;startSize=26;horizontalStack=0;resizeParent=1;resizeLast=0;collapsible=1;marginBottom=0;rounded=0;shadow=0;strokeWidth=1;" vertex="1" parent="WIyWlLk6GJQsqaUBKTNV-1">
          <mxGeometry x="-720" y="30" width="270" height="280" as="geometry">
            <mxRectangle x="550" y="140" width="160" height="26" as="alternateBounds" />
          </mxGeometry>
        </mxCell>
        <mxCell id="C-1Txqb46iEo5TLTrHJg-1" value="&lt;div style=&quot;border-color: var(--border-color); text-align: left;&quot;&gt;&lt;div style=&quot;border-color: var(--border-color);&quot;&gt;user_id:Long (primary key)&lt;/div&gt;&lt;div style=&quot;border-color: var(--border-color);&quot;&gt;firstname:String&lt;/div&gt;&lt;div style=&quot;border-color: var(--border-color);&quot;&gt;lastname:String&lt;/div&gt;&lt;div style=&quot;border-color: var(--border-color);&quot;&gt;password:String&lt;/div&gt;&lt;div style=&quot;border-color: var(--border-color);&quot;&gt;Role:Enum_Role;&lt;/div&gt;&lt;div style=&quot;border-color: var(--border-color);&quot;&gt;&lt;br&gt;&lt;/div&gt;&lt;div style=&quot;border-color: var(--border-color);&quot;&gt;List&amp;lt;Token&amp;gt; (foreign key referencing token table)&lt;/div&gt;&lt;/div&gt;" style="text;html=1;strokeColor=none;fillColor=none;align=center;verticalAlign=middle;whiteSpace=wrap;rounded=0;" vertex="1" parent="C-1Txqb46iEo5TLTrHJg-0">
          <mxGeometry y="26" width="270" height="140" as="geometry" />
        </mxCell>
        <mxCell id="C-1Txqb46iEo5TLTrHJg-2" value="Ennumeration&lt;Permission&gt;" style="swimlane;fontStyle=2;align=center;verticalAlign=bottom;childLayout=stackLayout;horizontal=1;startSize=20;horizontalStack=0;resizeParent=1;resizeLast=0;collapsible=1;marginBottom=0;rounded=0;shadow=0;strokeWidth=1;spacing=3;flipV=0;flipH=1;fontSize=12;" vertex="1" parent="WIyWlLk6GJQsqaUBKTNV-1">
          <mxGeometry x="-760" y="748" width="190" height="162" as="geometry">
            <mxRectangle x="230" y="140" width="160" height="26" as="alternateBounds" />
          </mxGeometry>
        </mxCell>
        <mxCell id="C-1Txqb46iEo5TLTrHJg-3" value="ADMIN_READ,&#xa;ADMIN_UPDATE,&#xa;ADMIN_CREATE,&#xa;ADMIN_DELETE,&#xa;MANAGER_READ,&#xa;MANAGER_UPDATE,&#xa;MANAGER_CREATE,&#xa;MANAGER_DELETE,&#xa;" style="text;align=left;verticalAlign=top;spacingLeft=4;spacingRight=4;overflow=hidden;rotatable=0;points=[[0,0.5],[1,0.5]];portConstraint=eastwest;" vertex="1" parent="C-1Txqb46iEo5TLTrHJg-2">
          <mxGeometry y="20" width="190" height="100" as="geometry" />
        </mxCell>
        <mxCell id="ugojNOrt9NUBFIoecqf6-0" value="Token" style="swimlane;fontStyle=0;align=center;verticalAlign=top;childLayout=stackLayout;horizontal=1;startSize=26;horizontalStack=0;resizeParent=1;resizeLast=0;collapsible=1;marginBottom=0;rounded=0;shadow=0;strokeWidth=1;" vertex="1" parent="WIyWlLk6GJQsqaUBKTNV-1">
          <mxGeometry x="-705" y="365" width="240" height="220" as="geometry">
            <mxRectangle x="550" y="140" width="160" height="26" as="alternateBounds" />
          </mxGeometry>
        </mxCell>
        <mxCell id="ugojNOrt9NUBFIoecqf6-1" value="&lt;div style=&quot;border-color: var(--border-color); text-align: left;&quot;&gt;&lt;div style=&quot;border-color: var(--border-color);&quot;&gt;token_id:Long (primary key)&lt;/div&gt;&lt;div style=&quot;border-color: var(--border-color);&quot;&gt;token:String&lt;/div&gt;&lt;div style=&quot;border-color: var(--border-color);&quot;&gt;tokenType:type&lt;/div&gt;&lt;div style=&quot;border-color: var(--border-color);&quot;&gt;expired:boolean&lt;/div&gt;&lt;div style=&quot;border-color: var(--border-color);&quot;&gt;revoked:boolean;&lt;/div&gt;&lt;div style=&quot;border-color: var(--border-color);&quot;&gt;&lt;br&gt;&lt;/div&gt;&lt;div style=&quot;border-color: var(--border-color);&quot;&gt;user_id (manyToOne,Join Column User table)&lt;/div&gt;&lt;/div&gt;" style="text;html=1;strokeColor=none;fillColor=none;align=center;verticalAlign=middle;whiteSpace=wrap;rounded=0;" vertex="1" parent="ugojNOrt9NUBFIoecqf6-0">
          <mxGeometry y="26" width="240" height="140" as="geometry" />
        </mxCell>
        <mxCell id="ugojNOrt9NUBFIoecqf6-3" value="Ennumeration&lt;Token_type&gt;" style="swimlane;fontStyle=2;align=center;verticalAlign=bottom;childLayout=stackLayout;horizontal=1;startSize=20;horizontalStack=0;resizeParent=1;resizeLast=0;collapsible=1;marginBottom=0;rounded=0;shadow=0;strokeWidth=1;spacing=3;flipV=0;flipH=1;fontSize=12;" vertex="1" parent="WIyWlLk6GJQsqaUBKTNV-1">
          <mxGeometry x="-120" y="749" width="190" height="160" as="geometry">
            <mxRectangle x="230" y="140" width="160" height="26" as="alternateBounds" />
          </mxGeometry>
        </mxCell>
        <mxCell id="ugojNOrt9NUBFIoecqf6-4" value="Bearer" style="text;align=left;verticalAlign=top;spacingLeft=4;spacingRight=4;overflow=hidden;rotatable=0;points=[[0,0.5],[1,0.5]];portConstraint=eastwest;" vertex="1" parent="ugojNOrt9NUBFIoecqf6-3">
          <mxGeometry y="20" width="190" height="120" as="geometry" />
        </mxCell>
        <mxCell id="ugojNOrt9NUBFIoecqf6-5" value="" style="endArrow=classic;html=1;rounded=0;exitX=0.5;exitY=1;exitDx=0;exitDy=0;entryX=0.5;entryY=0;entryDx=0;entryDy=0;" edge="1" parent="WIyWlLk6GJQsqaUBKTNV-1" source="C-1Txqb46iEo5TLTrHJg-0" target="ugojNOrt9NUBFIoecqf6-0">
          <mxGeometry width="50" height="50" relative="1" as="geometry">
            <mxPoint x="-310" y="300" as="sourcePoint" />
            <mxPoint x="-260" y="250" as="targetPoint" />
          </mxGeometry>
        </mxCell>
        <mxCell id="ugojNOrt9NUBFIoecqf6-6" value="1" style="text;html=1;strokeColor=none;fillColor=none;align=center;verticalAlign=middle;whiteSpace=wrap;rounded=0;fontSize=12;" vertex="1" parent="WIyWlLk6GJQsqaUBKTNV-1">
          <mxGeometry x="-630" y="305" width="60" height="30" as="geometry" />
        </mxCell>
        <mxCell id="ugojNOrt9NUBFIoecqf6-7" value="*" style="text;html=1;strokeColor=none;fillColor=none;align=center;verticalAlign=middle;whiteSpace=wrap;rounded=0;fontSize=12;" vertex="1" parent="WIyWlLk6GJQsqaUBKTNV-1">
          <mxGeometry x="-600" y="335" width="60" height="30" as="geometry" />
        </mxCell>
        <mxCell id="ugojNOrt9NUBFIoecqf6-9" value="*" style="text;html=1;strokeColor=none;fillColor=none;align=center;verticalAlign=middle;whiteSpace=wrap;rounded=0;fontSize=12;" vertex="1" parent="WIyWlLk6GJQsqaUBKTNV-1">
          <mxGeometry x="500" y="330" width="60" height="30" as="geometry" />
        </mxCell>
        <mxCell id="ugojNOrt9NUBFIoecqf6-10" value="*" style="text;html=1;strokeColor=none;fillColor=none;align=center;verticalAlign=middle;whiteSpace=wrap;rounded=0;fontSize=12;" vertex="1" parent="WIyWlLk6GJQsqaUBKTNV-1">
          <mxGeometry x="-160" y="315" width="60" height="30" as="geometry" />
        </mxCell>
        <mxCell id="ugojNOrt9NUBFIoecqf6-12" value="Ennumeration&lt;Token_type&gt;" style="swimlane;fontStyle=2;align=center;verticalAlign=bottom;childLayout=stackLayout;horizontal=1;startSize=20;horizontalStack=0;resizeParent=1;resizeLast=0;collapsible=1;marginBottom=0;rounded=0;shadow=0;strokeWidth=1;spacing=3;flipV=0;flipH=1;fontSize=12;" vertex="1" parent="WIyWlLk6GJQsqaUBKTNV-1">
          <mxGeometry x="-120" y="749" width="190" height="160" as="geometry">
            <mxRectangle x="230" y="140" width="160" height="26" as="alternateBounds" />
          </mxGeometry>
        </mxCell>
        <mxCell id="ugojNOrt9NUBFIoecqf6-13" value="Bearer" style="text;align=left;verticalAlign=top;spacingLeft=4;spacingRight=4;overflow=hidden;rotatable=0;points=[[0,0.5],[1,0.5]];portConstraint=eastwest;" vertex="1" parent="ugojNOrt9NUBFIoecqf6-12">
          <mxGeometry y="20" width="190" height="120" as="geometry" />
        </mxCell>
        <mxCell id="ugojNOrt9NUBFIoecqf6-14" value="Ennumeration&lt;monthly_expenditure_type&gt;" style="swimlane;fontStyle=2;align=center;verticalAlign=bottom;childLayout=stackLayout;horizontal=1;startSize=20;horizontalStack=0;resizeParent=1;resizeLast=0;collapsible=1;marginBottom=0;rounded=0;shadow=0;strokeWidth=1;spacing=3;flipV=0;flipH=1;fontSize=12;" vertex="1" parent="WIyWlLk6GJQsqaUBKTNV-1">
          <mxGeometry x="90" y="748" width="390" height="160" as="geometry">
            <mxRectangle x="230" y="140" width="160" height="26" as="alternateBounds" />
          </mxGeometry>
        </mxCell>
        <mxCell id="ugojNOrt9NUBFIoecqf6-15" value="AD_words, Salary_mass,  Other" style="text;align=left;verticalAlign=top;spacingLeft=4;spacingRight=4;overflow=hidden;rotatable=0;points=[[0,0.5],[1,0.5]];portConstraint=eastwest;" vertex="1" parent="ugojNOrt9NUBFIoecqf6-14">
          <mxGeometry y="20" width="390" height="120" as="geometry" />
        </mxCell>
        <mxCell id="ugojNOrt9NUBFIoecqf6-16" value="Turnover" style="swimlane;fontStyle=2;align=center;verticalAlign=top;childLayout=stackLayout;horizontal=1;startSize=26;horizontalStack=0;resizeParent=1;resizeLast=0;collapsible=1;marginBottom=0;rounded=0;shadow=0;strokeWidth=1;" vertex="1" parent="WIyWlLk6GJQsqaUBKTNV-1">
          <mxGeometry x="360" y="40" width="260" height="250" as="geometry">
            <mxRectangle x="230" y="140" width="160" height="26" as="alternateBounds" />
          </mxGeometry>
        </mxCell>
        <mxCell id="ugojNOrt9NUBFIoecqf6-17" value="doctor_id:Long(primary key)&#xa;firstname:String;&#xa;lastname:String;&#xa;Speciality:String;&#xa;gender:String;&#xa;phone:Long;&#xa;imageUrl:String;&#xa;email:String;&#xa;Cabinet_name:CabinetName;" style="text;align=left;verticalAlign=top;spacingLeft=4;spacingRight=4;overflow=hidden;rotatable=0;points=[[0,0.5],[1,0.5]];portConstraint=eastwest;" vertex="1" parent="ugojNOrt9NUBFIoecqf6-16">
          <mxGeometry y="26" width="260" height="214" as="geometry" />
        </mxCell>
        <mxCell id="ugojNOrt9NUBFIoecqf6-18" value="" style="endArrow=classic;html=1;rounded=0;entryX=1;entryY=0.5;entryDx=0;entryDy=0;exitX=0;exitY=0.5;exitDx=0;exitDy=0;" edge="1" parent="WIyWlLk6GJQsqaUBKTNV-1" source="ugojNOrt9NUBFIoecqf6-17" target="zkfFHV4jXpPFQw0GAbJ--1">
          <mxGeometry width="50" height="50" relative="1" as="geometry">
            <mxPoint x="130" y="400" as="sourcePoint" />
            <mxPoint x="180" y="350" as="targetPoint" />
          </mxGeometry>
        </mxCell>
        <mxCell id="ugojNOrt9NUBFIoecqf6-19" value="1" style="text;html=1;strokeColor=none;fillColor=none;align=center;verticalAlign=middle;whiteSpace=wrap;rounded=0;fontSize=12;" vertex="1" parent="WIyWlLk6GJQsqaUBKTNV-1">
          <mxGeometry x="230" y="130" width="60" height="30" as="geometry" />
        </mxCell>
        <mxCell id="ugojNOrt9NUBFIoecqf6-20" value="1" style="text;html=1;strokeColor=none;fillColor=none;align=center;verticalAlign=middle;whiteSpace=wrap;rounded=0;fontSize=12;" vertex="1" parent="WIyWlLk6GJQsqaUBKTNV-1">
          <mxGeometry x="310" y="130" width="60" height="30" as="geometry" />
        </mxCell>
        <mxCell id="ugojNOrt9NUBFIoecqf6-23" value="" style="endArrow=classic;html=1;rounded=0;entryX=0.5;entryY=0;entryDx=0;entryDy=0;" edge="1" parent="WIyWlLk6GJQsqaUBKTNV-1" target="GJzHazyFfBrI7LoOwoTK-0">
          <mxGeometry width="50" height="50" relative="1" as="geometry">
            <mxPoint x="500" y="290" as="sourcePoint" />
            <mxPoint x="80" y="350" as="targetPoint" />
          </mxGeometry>
        </mxCell>
        <mxCell id="ugojNOrt9NUBFIoecqf6-24" value="1" style="text;html=1;strokeColor=none;fillColor=none;align=center;verticalAlign=middle;whiteSpace=wrap;rounded=0;fontSize=12;" vertex="1" parent="WIyWlLk6GJQsqaUBKTNV-1">
          <mxGeometry x="440" y="300" width="60" height="30" as="geometry" />
        </mxCell>
      </root>
    </mxGraphModel>
  </diagram>
</mxfile>
